<!-- Generated by IcoMoon.io -->
<svg version="1.1" xmlns="http://www.w3.org/2000/svg" width="132" height="32" viewBox="0 0 132 32">
<title>logoaperture</title>
<path d="M32.262 4.289c1.563 0 2.978 0.394 4.244 1.173 1.266 0.785 2.268 1.893 3.005 3.334s1.106 3.111 1.106 5.009c0 1.899-0.369 3.58-1.106 5.043s-1.739 2.597-3.005 3.401c-1.266 0.804-2.68 1.206-4.244 1.206-1.343 0-2.526-0.279-3.55-0.838s-1.855-1.262-2.493-2.111v11.493h-4.624v-27.41h4.624v2.681c0.594-0.846 1.415-1.558 2.46-2.128s2.24-0.854 3.583-0.854zM50.657 4.289c1.739 0 3.297 0.38 4.673 1.139s2.444 1.837 3.203 3.234c0.76 1.396 1.139 2.999 1.139 4.808 0 0.67-0.044 1.273-0.132 1.809h-13.375c0.11 1.34 0.572 2.39 1.387 3.15s1.816 1.139 3.005 1.139c1.717 0 2.939-0.748 3.666-2.245h4.987c-0.528 1.787-1.541 3.256-3.038 4.406-1.497 1.153-3.336 1.726-5.515 1.726-1.761 0-3.341-0.397-4.739-1.19s-2.488-1.916-3.269-3.368c-0.782-1.452-1.172-3.127-1.172-5.026 0-1.918 0.385-3.605 1.156-5.060 0.771-1.452 1.849-2.566 3.236-3.351 1.387-0.779 2.983-1.173 4.789-1.173zM123.113 4.289c1.739 0 3.297 0.38 4.673 1.139s2.443 1.837 3.203 3.234c0.76 1.396 1.14 2.999 1.14 4.808 0 0.67-0.044 1.273-0.132 1.809h-13.375c0.109 1.34 0.572 2.39 1.387 3.15 0.814 0.76 1.816 1.139 3.005 1.139 1.718 0 2.939-0.748 3.666-2.245h4.987c-0.529 1.787-1.541 3.256-3.038 4.406-1.498 1.153-3.336 1.726-5.515 1.726-1.761 0-3.341-0.397-4.739-1.19-1.399-0.793-2.488-1.916-3.269-3.368-0.782-1.452-1.173-3.127-1.173-5.026 0-1.918 0.385-3.605 1.156-5.060 0.77-1.452 1.849-2.566 3.236-3.351 1.387-0.779 2.983-1.173 4.789-1.173zM4.569 16.859l8.504 4.998c-0.33 0.279-0.715 0.53-1.128 0.754-1.046 0.558-2.257 0.838-3.633 0.838-1.349 0-2.614-0.307-3.743-0.949v-5.641zM89.031 4.591v10.22c0 1.474 0.363 2.608 1.090 3.401s1.717 1.19 2.972 1.19c1.277 0 2.279-0.397 3.005-1.19s1.090-1.927 1.090-3.401v-10.22h4.657v18.564h-4.657v-2.346c-0.594 0.804-1.371 1.435-2.328 1.893s-1.998 0.687-3.121 0.687c-1.431 0-2.697-0.307-3.798-0.922s-1.965-1.519-2.592-2.714-0.941-2.619-0.941-4.272v-10.89h4.623zM71.298 4.323v4.926h-1.222c-1.453 0-2.548 0.346-3.286 1.039s-1.106 1.899-1.106 3.619v9.248h-4.624v-18.564h4.624v2.882c0.594-0.983 1.371-1.754 2.328-2.312s2.053-0.838 3.286-0.838zM113.998 4.323v4.926h-1.222c-1.453 0-2.549 0.346-3.286 1.039-0.738 0.692-1.107 1.899-1.107 3.619v9.248h-4.623v-18.564h4.623v2.882c0.595-0.983 1.371-1.754 2.328-2.312 0.958-0.558 2.053-0.838 3.287-0.838zM79.125 0v4.591h4.095v3.853h-4.095v8.98c0 0.625 0.149 1.078 0.446 1.357s0.798 0.419 1.503 0.419h2.147v3.954h-2.906c-3.897 0-5.845-1.921-5.845-5.764v-8.947h-2.18v-3.853h2.18v-4.591h4.657zM19.045 12.978v10.164h-4.651v-2.709c-0.22 0.335-0.468 0.642-0.771 0.921l-4.458-2.597 9.88-5.78zM3.88 11.888v10.192c-1.156-0.782-2.092-1.843-2.78-3.239-0.688-1.368-1.046-2.932-1.101-4.691l3.88-2.262zM31.040 8.41c-0.837 0-1.624 0.218-2.361 0.653s-1.332 1.067-1.783 1.893c-0.451 0.827-0.677 1.798-0.677 2.915s0.226 2.092 0.677 2.915c0.451 0.827 1.046 1.458 1.783 1.893s1.525 0.653 2.361 0.653c0.859 0 1.657-0.223 2.394-0.67s1.332-1.083 1.783-1.91c0.451-0.827 0.677-1.809 0.677-2.949 0-1.117-0.226-2.083-0.677-2.898s-1.046-1.435-1.783-1.86-1.536-0.637-2.394-0.637zM19.044 4.6v7.567l-5.972 3.49v-9.773c0.523 0.391 0.963 0.838 1.321 1.34v-2.625h4.651zM3.192 6.109l4.596 2.681-7.761 4.552c0.028-1.703 0.385-3.211 1.073-4.524 0.55-1.089 1.266-1.983 2.092-2.709zM50.525 8.142c-1.145 0-2.108 0.352-2.89 1.056s-1.26 1.681-1.437 2.932h8.686c-0.022-1.206-0.451-2.173-1.288-2.899s-1.86-1.089-3.071-1.089zM122.981 8.142c-1.145 0-2.108 0.352-2.889 1.056-0.782 0.704-1.261 1.681-1.437 2.932h8.685c-0.022-1.206-0.451-2.173-1.288-2.899-0.836-0.726-1.86-1.089-3.071-1.089zM8.366 4.294c1.349 0 2.532 0.279 3.578 0.838 0.138 0.084 0.303 0.168 0.44 0.279v5.278l-8.559-5.026c0.083-0.084 0.193-0.14 0.275-0.195 1.266-0.782 2.697-1.173 4.266-1.173z"></path>
</svg>
