<!-- Generated by IcoMoon.io -->
<svg version="1.1" xmlns="http://www.w3.org/2000/svg" width="32" height="32" viewBox="0 0 32 32">
<title>pro1</title>
<path d="M16.746 0c0.129 0 0.234 0.105 0.234 0.234v0.245c0 0.129-0.105 0.234-0.234 0.234h-0.269v0.789c8.201 0.252 14.773 6.98 14.773 15.245 0 8.425-6.827 15.254-15.249 15.254s-15.251-6.829-15.251-15.254c0-8.264 6.572-14.992 14.773-15.244v-0.789h-0.269c-0.129 0-0.234-0.105-0.234-0.234v-0.245c0-0.129 0.105-0.234 0.234-0.234h1.492zM16.382 3.501v1.339c0 0.211-0.171 0.382-0.382 0.382s-0.382-0.171-0.382-0.382v-1.338c-7.015 0.2-12.662 5.847-12.86 12.863h1.338c0.211 0 0.382 0.171 0.382 0.382s-0.171 0.382-0.382 0.382h-1.338c0.2 7.016 5.846 12.664 12.86 12.863v-1.338c0-0.211 0.171-0.382 0.382-0.382s0.382 0.171 0.382 0.382v1.338c7.015-0.199 12.661-5.847 12.86-12.863h-1.338c-0.211 0-0.382-0.171-0.382-0.382s0.171-0.382 0.382-0.382h1.338c-0.199-7.017-5.845-12.664-12.86-12.863zM16 16.034c0.393 0 0.712 0.319 0.712 0.713 0 0.041-0.005 0.080-0.012 0.118l4.532 4.099c0.116 0.105 0.2 0.241 0.242 0.393l0.061 0.222c0.030 0.108-0.063 0.211-0.173 0.192l-0.228-0.039c-0.155-0.026-0.298-0.096-0.415-0.201l-4.532-4.1c-0.060 0.017-0.122 0.028-0.187 0.028-0.393 0-0.712-0.319-0.712-0.713s0.319-0.713 0.712-0.713z"></path>
</svg>
