<!-- Generated by IcoMoon.io -->
<svg version="1.1" xmlns="http://www.w3.org/2000/svg" width="64" height="32" viewBox="0 0 64 32">
<title>pro3</title>
<path d="M57.798 0c3.425 0 6.202 2.798 6.202 6.25v19.5c0 3.452-2.777 6.25-6.202 6.25h-51.597c-3.425 0-6.202-2.798-6.202-6.25v-19.5c0-3.452 2.777-6.25 6.202-6.25h51.597zM25.42 5.822c-1.357 0-2.564 0.233-3.62 0.698s-1.876 1.135-2.46 2.009c-0.584 0.874-0.877 1.9-0.877 3.078 0 1.254 0.288 2.256 0.863 3.007s1.263 1.311 2.064 1.681c0.801 0.371 1.843 0.746 3.125 1.126 0.943 0.266 1.683 0.508 2.22 0.727s0.985 0.518 1.343 0.898 0.537 0.864 0.537 1.454c0 0.722-0.264 1.306-0.792 1.753s-1.254 0.67-2.177 0.67c-0.905 0-1.617-0.238-2.135-0.713-0.498-0.456-0.783-1.069-0.855-1.841l-0.008-0.097h-4.242l0.003 0.13c0.040 1.161 0.368 2.173 0.987 3.034 0.641 0.893 1.513 1.577 2.616 2.052s2.343 0.712 3.719 0.712c1.452 0 2.705-0.271 3.761-0.812s1.857-1.268 2.404-2.18 0.82-1.9 0.82-2.964c0-1.235-0.292-2.232-0.877-2.992s-1.282-1.33-2.093-1.71c-0.811-0.38-1.857-0.76-3.139-1.14-0.943-0.285-1.673-0.537-2.192-0.755s-0.952-0.504-1.301-0.855c-0.349-0.351-0.523-0.793-0.523-1.325 0-0.76 0.231-1.339 0.693-1.739s1.079-0.598 1.852-0.598c0.886 0 1.598 0.223 2.135 0.67 0.515 0.428 0.8 0.965 0.856 1.611l0.006 0.085h4.355l-0.010-0.121c-0.154-1.728-0.853-3.079-2.097-4.054-1.272-0.998-2.927-1.496-4.963-1.496zM46.788 5.822c-1.848 0-3.544 0.437-5.090 1.311s-2.771 2.085-3.676 3.634c-0.905 1.549-1.357 3.292-1.357 5.23 0 1.957 0.452 3.71 1.357 5.258s2.13 2.76 3.676 3.634c1.546 0.874 3.243 1.311 5.090 1.311s3.544-0.437 5.090-1.311c1.546-0.874 2.767-2.085 3.662-3.634s1.343-3.301 1.343-5.258c0-1.938-0.448-3.681-1.343-5.23s-2.111-2.76-3.648-3.634c-1.536-0.874-3.238-1.311-5.104-1.311zM13.525 6.107h-3.959v19.893h3.959v-19.893zM46.788 9.413c1.188 0 2.234 0.266 3.139 0.798s1.612 1.297 2.121 2.294 0.764 2.161 0.764 3.491c0 1.33-0.255 2.498-0.764 3.506s-1.216 1.781-2.121 2.323c-0.905 0.541-1.951 0.812-3.139 0.812s-2.239-0.271-3.153-0.812c-0.914-0.542-1.626-1.316-2.135-2.323s-0.763-2.175-0.763-3.505 0.254-2.494 0.763-3.491c0.509-0.998 1.221-1.762 2.135-2.294s1.965-0.798 3.153-0.798z"></path>
</svg>
