<!-- Generated by IcoMoon.io -->
<svg version="1.1" xmlns="http://www.w3.org/2000/svg" width="38" height="32" viewBox="0 0 38 32">
<title>sn1</title>
<path d="M38.4 4.090c-1.413 0.628-2.931 1.049-4.524 1.242 1.628-0.974 2.874-2.519 3.462-4.357-1.523 0.904-3.212 1.558-5.002 1.913-1.435-1.531-3.484-2.488-5.748-2.488-4.353 0-7.881 3.524-7.881 7.877 0 0.619 0.070 1.22 0.202 1.795-6.547-0.329-12.352-3.462-16.236-8.232-0.676 1.163-1.066 2.519-1.066 3.963 0 2.734 1.391 5.143 3.502 6.556-1.29-0.040-2.506-0.395-3.567-0.987v0.101c0 3.818 2.716 6.999 6.319 7.723-0.658 0.18-1.356 0.276-2.076 0.276-0.509 0-1-0.048-1.479-0.14 1 3.129 3.91 5.406 7.354 5.472-2.694 2.111-6.086 3.37-9.781 3.37-0.636 0-1.259-0.035-1.878-0.11 3.489 2.233 7.626 3.537 12.076 3.537 14.489 0 22.414-12.002 22.414-22.41 0-0.342-0.009-0.68-0.022-1.018 1.54-1.115 2.879-2.501 3.932-4.081z"></path>
</svg>
