<!-- Generated by IcoMoon.io -->
<svg version="1.1" xmlns="http://www.w3.org/2000/svg" width="32" height="32" viewBox="0 0 32 32">
<title>sn2</title>
<path d="M16 7.691c-4.582 0-8.309 3.727-8.309 8.309s3.727 8.306 8.309 8.306c4.582 0 8.306-3.727 8.306-8.306 0.003-4.582-3.724-8.309-8.306-8.309zM16 21.138c-2.834 0-5.138-2.304-5.138-5.138s2.304-5.138 5.138-5.138c2.834 0 5.138 2.304 5.138 5.138s-2.304 5.138-5.138 5.138zM22.791 0h-13.583c-5.077 0-9.209 4.132-9.209 9.209v13.583c0 5.077 4.132 9.209 9.209 9.209h13.583c5.077 0 9.209-4.132 9.209-9.209v-13.583c0-5.077-4.129-9.209-9.209-9.209zM28.832 22.791c0 3.329-2.711 6.038-6.041 6.038h-13.583c-3.329 0-6.038-2.708-6.038-6.038v-13.583c0-3.329 2.708-6.038 6.038-6.038h13.583c3.329 0 6.038 2.708 6.038 6.038v13.583h0.003zM24.422 5.29c-1.197 0-2.174 0.974-2.174 2.174 0 1.197 0.974 2.174 2.174 2.174 1.197 0 2.174-0.974 2.174-2.174s-0.977-2.174-2.174-2.174z"></path>
</svg>
